<?xml version="1.0" encoding="UTF-8"?>
<svg width="13.5cm" height="2.7cm" viewBox="0 0 1350 270" xmlns="http://www.w3.org/2000/svg" version="1.1" xmlns:xlink="http://www.w3.org/1999/xlink">
	<g transform="0,0">
		<rect x="25px" y="25px" width="100px" height="100px" fill="rgb(255,0,0)" />
		<g opacity="0.5">
			<circle cx="125px" cy="75px" r="45px" fill="rgb(0,128,0)" />
			<polygon fill="rgb(0,0,255)" />
		</g>
		<rect x="5px" y="5px" width="260px" height="260px" fill="none" stroke="rgb(0,0,255)" />
	</g>
	<g transform="270,0">
		<rect x="25px" y="25px" width="100px" height="100px" fill="rgb(255,0,0)" />
		<g opacity="0.5">
			<circle cx="125px" cy="75px" r="45px" fill="rgb(0,128,0)" />
			<polygon fill="rgb(0,0,255)" />
		</g>
		<g />
		<rect x="5px" y="5px" width="260px" height="260px" fill="none" stroke="rgb(0,0,255)" />
	</g>
	<g transform="270,0">
		<rect x="25px" y="25px" width="100px" height="100px" fill="rgb(255,0,0)" />
		<g opacity="0.5">
			<circle cx="125px" cy="75px" r="45px" fill="rgb(0,128,0)" />
			<polygon fill="rgb(0,0,255)" />
		</g>
		<rect x="5px" y="5px" width="260px" height="260px" fill="none" stroke="rgb(0,0,255)" />
	</g>
	<g transform="270,0">
		<rect x="25px" y="25px" width="100px" height="100px" fill="rgb(255,0,0)" />
		<g opacity="0.5">
			<circle cx="125px" cy="75px" r="45px" fill="rgb(0,128,0)" />
			<polygon fill="rgb(0,0,255)" />
		</g>
		<rect x="5px" y="5px" width="260px" height="260px" fill="none" stroke="rgb(0,0,255)" />
	</g>
	<g transform="270,0">
		<rect x="25px" y="25px" width="100px" height="100px" fill="rgb(255,0,0)" />
		<g opacity="0.5">
			<circle cx="125px" cy="75px" r="45px" fill="rgb(0,128,0)" />
			<polygon fill="rgb(0,0,255)" />
		</g>
		<rect x="5px" y="5px" width="260px" height="260px" fill="none" stroke="rgb(0,0,255)" />
	</g>
	<defs>
		<filter units="userSpaceOnUse" x="0px" y="0px" width="1200px" height="400px" id="ShiftBGAndBlur">
			<feOffset in="BackgroundImage" dx="0" dy="125" />
			<feGaussianBlur stdDeviation="8" />
		</filter>
		<filter units="userSpaceOnUse" x="0px" y="0px" width="1200px" height="400px" id="ShiftBGAndBlur_WithSourceGraphic">
			<feOffset in="BackgroundImage" dx="0" dy="125" />
			<feGaussianBlur stdDeviation="8" result="blur" />
			<feMerge>
				<feMergeNode />
				<feMergeNode />
			</feMerge>
		</filter>
	</defs>
</svg>
