<?xml version="1.0" encoding="utf-8" standalone="yes"?><svg xmlns:xlink="http://www.w3.org/1999/xlink" xmlns="http://www.w3.org/2000/svg" height="2.7cm" viewBox="0 0 1350 270" width="13.5cm" version="1.1"><g transform="translate(0,0)"><rect fill="rgb(255,0,0)" width="100" y="25" height="100" x="25"></rect><g opacity="0.5"><circle cy="75" r="45" cx="125" fill="rgb(0,128,0)"></circle><polygon points="160,25,160,125,240,75" fill="rgb(0,0,255)"></polygon></g><rect y="5" fill="none" width="260" stroke="rgb(0,0,255)" x="5" height="260"></rect></g><g transform="translate(270,0)"><rect height="100" x="25" fill="rgb(255,0,0)" y="25" width="100"></rect><g opacity="0.5"><circle cy="75" fill="rgb(0,128,0)" cx="125" r="45"></circle><polygon fill="rgb(0,0,255)" points="160,25,160,125,240,75"></polygon></g><g filter="url(#ShiftBGAndBlur)"></g><rect width="260" stroke="rgb(0,0,255)" x="5" fill="none" height="260" y="5"></rect></g><g transform="translate(540,0)"><rect height="100" x="25" y="25" fill="rgb(255,0,0)" width="100"></rect><g filter="url(#ShiftBGAndBlur)" opacity="0.5"><circle cx="125" cy="75" fill="rgb(0,128,0)" r="45"></circle><polygon fill="rgb(0,0,255)" points="160,25,160,125,240,75"></polygon></g><rect fill="none" width="260" y="5" height="260" stroke="rgb(0,0,255)" x="5"></rect></g><g transform="translate(810,0)"><rect height="100" y="25" x="25" width="100" fill="rgb(255,0,0)"></rect><g opacity="0.5"><circle fill="rgb(0,128,0)" r="45" cx="125" cy="75"></circle><polygon fill="rgb(0,0,255)" points="160,25,160,125,240,75" filter="url(#ShiftBGAndBlur)"></polygon></g><rect x="5" y="5" fill="none" stroke="rgb(0,0,255)" width="260" height="260"></rect></g><g transform="translate(1080,0)"><rect fill="rgb(255,0,0)" y="25" x="25" height="100" width="100"></rect><g opacity="0.5"><circle cx="125" fill="rgb(0,128,0)" cy="75" r="45"></circle><polygon fill="rgb(0,0,255)" filter="url(#ShiftBGAndBlur_WithSourceGraphic)" points="160,25,160,125,240,75"></polygon></g><rect height="260" y="5" fill="none" stroke="rgb(0,0,255)" x="5" width="260"></rect></g><defs><filter height="400" y="0" x="0" filterUnits="userSpaceOnUse" id="ShiftBGAndBlur" width="1200"><feOffset in="backgroundImage" dx="0" dy="125"></feOffset><feGaussianBlur std_deviation="8"></feGaussianBlur></filter><filter width="1200" x="0" height="400" filterUnits="userSpaceOnUse" y="0" id="ShiftBGAndBlur_WithSourceGraphic"><feOffset in="backgroundImage" dx="0" dy="125"></feOffset><feGaussianBlur std_deviation="8" result="blur"></feGaussianBlur><feMerge><feMergeNode in="blur"></feMergeNode><feMergeNode in="sourceGraphic"></feMergeNode></feMerge></filter></defs></svg>