<?xml version="1.0" encoding="utf-8" standalone="yes"?><svg xmlns:xlink="http://www.w3.org/1999/xlink" height="2.7cm" xmlns="http://www.w3.org/2000/svg" version="1.1" width="13.5cm" viewBox="0 0 1350 270"><g transform="translate(0,0)"><rect fill="rgb(255,0,0)" width="100" height="100" y="25" x="25"></rect><g opacity="0.5"><circle fill="rgb(0,128,0)" r="45" cy="75" cx="125"></circle><polygon points="160,25,160,125,240,75" fill="rgb(0,0,255)"></polygon></g><rect x="5" y="5" height="260" stroke="rgb(0,0,255)" fill="none" width="260"></rect></g><g transform="translate(270,0)"><rect fill="rgb(255,0,0)" x="25" height="100" y="25" width="100"></rect><g opacity="0.5"><circle fill="rgb(0,128,0)" cy="75" r="45" cx="125"></circle><polygon fill="rgb(0,0,255)" points="160,25,160,125,240,75"></polygon></g><g filter="url(#ShiftBGAndBlur)"></g><rect width="260" x="5" y="5" stroke="rgb(0,0,255)" height="260" fill="none"></rect></g><g transform="translate(540,0)"><rect width="100" height="100" x="25" y="25" fill="rgb(255,0,0)"></rect><g filter="url(#ShiftBGAndBlur)" opacity="0.5"><circle cy="75" cx="125" r="45" fill="rgb(0,128,0)"></circle><polygon fill="rgb(0,0,255)" points="160,25,160,125,240,75"></polygon></g><rect x="5" width="260" fill="none" y="5" height="260" stroke="rgb(0,0,255)"></rect></g><g transform="translate(810,0)"><rect y="25" height="100" fill="rgb(255,0,0)" width="100" x="25"></rect><g opacity="0.5"><circle r="45" cy="75" cx="125" fill="rgb(0,128,0)"></circle><polygon fill="rgb(0,0,255)" points="160,25,160,125,240,75" filter="url(#ShiftBGAndBlur)"></polygon></g><rect x="5" stroke="rgb(0,0,255)" width="260" y="5" height="260" fill="none"></rect></g><g transform="translate(1080,0)"><rect width="100" y="25" x="25" height="100" fill="rgb(255,0,0)"></rect><g opacity="0.5"><circle cy="75" r="45" cx="125" fill="rgb(0,128,0)"></circle><polygon filter="url(#ShiftBGAndBlur_WithSourceGraphic)" points="160,25,160,125,240,75" fill="rgb(0,0,255)"></polygon></g><rect y="5" width="260" fill="none" height="260" x="5" stroke="rgb(0,0,255)"></rect></g><defs><filter width="1200" x="0" filterUnits="userSpaceOnUse" id="ShiftBGAndBlur" y="0" height="400"><feOffset dy="125" in="backgroundImage" dx="0"></feOffset><feGaussianBlur std_deviation="8"></feGaussianBlur></filter><filter width="1200" x="0" y="0" filterUnits="userSpaceOnUse" height="400" id="ShiftBGAndBlur_WithSourceGraphic"><feOffset dy="125" dx="0" in="backgroundImage"></feOffset><feGaussianBlur std_deviation="8" result="blur"></feGaussianBlur><feMerge><feMergeNode in="blur"></feMergeNode><feMergeNode in="sourceGraphic"></feMergeNode></feMerge></filter></defs></svg>