<?xml version="1.0" encoding="utf-8" standalone="yes"?><svg version="1.1" xmlns:xlink="http://www.w3.org/1999/xlink" viewBox="0 0 1350 270" width="13.5cm" height="2.7cm" xmlns="http://www.w3.org/2000/svg"><g transform="translate(0,0)"><rect width="100" x="25" fill="rgb(255,0,0)" height="100" y="25"></rect><g opacity="0.5"><circle cx="125" fill="rgb(0,128,0)" r="45" cy="75"></circle><polygon points="160,25,160,125,240,75" fill="rgb(0,0,255)"></polygon></g><rect fill="none" stroke="rgb(0,0,255)" y="5" width="260" height="260" x="5"></rect></g><g transform="translate(270,0)"><rect fill="rgb(255,0,0)" width="100" x="25" y="25" height="100"></rect><g opacity="0.5"><circle cx="125" fill="rgb(0,128,0)" r="45" cy="75"></circle><polygon fill="rgb(0,0,255)" points="160,25,160,125,240,75"></polygon></g><g filter="url(#ShiftBGAndBlur)"></g><rect width="260" x="5" height="260" y="5" fill="none" stroke="rgb(0,0,255)"></rect></g><g transform="translate(540,0)"><rect y="25" width="100" x="25" height="100" fill="rgb(255,0,0)"></rect><g filter="url(#ShiftBGAndBlur)" opacity="0.5"><circle fill="rgb(0,128,0)" cy="75" cx="125" r="45"></circle><polygon points="160,25,160,125,240,75" fill="rgb(0,0,255)"></polygon></g><rect y="5" stroke="rgb(0,0,255)" fill="none" x="5" width="260" height="260"></rect></g><g transform="translate(810,0)"><rect width="100" fill="rgb(255,0,0)" height="100" x="25" y="25"></rect><g opacity="0.5"><circle cy="75" r="45" fill="rgb(0,128,0)" cx="125"></circle><polygon points="160,25,160,125,240,75" filter="url(#ShiftBGAndBlur)" fill="rgb(0,0,255)"></polygon></g><rect fill="none" x="5" height="260" y="5" stroke="rgb(0,0,255)" width="260"></rect></g><g transform="translate(1080,0)"><rect height="100" x="25" fill="rgb(255,0,0)" width="100" y="25"></rect><g opacity="0.5"><circle cx="125" cy="75" r="45" fill="rgb(0,128,0)"></circle><polygon filter="url(#ShiftBGAndBlur_WithSourceGraphic)" fill="rgb(0,0,255)" points="160,25,160,125,240,75"></polygon></g><rect width="260" y="5" x="5" height="260" stroke="rgb(0,0,255)" fill="none"></rect></g><defs><filter filterUnits="userSpaceOnUse" y="0" width="1200" x="0" id="ShiftBGAndBlur" height="400"><feOffset in="backgroundImage" dx="0" dy="125"></feOffset><feGaussianBlur std_deviation="8"></feGaussianBlur></filter><filter width="1200" id="ShiftBGAndBlur_WithSourceGraphic" filterUnits="userSpaceOnUse" y="0" height="400" x="0"><feOffset in="backgroundImage" dx="0" dy="125"></feOffset><feGaussianBlur result="blur" std_deviation="8"></feGaussianBlur><feMerge><feMergeNode in="blur"></feMergeNode><feMergeNode in="sourceGraphic"></feMergeNode></feMerge></filter></defs></svg>