<?xml version="1.0" encoding="utf-8" standalone="yes"?><svg xmlns:xlink="http://www.w3.org/1999/xlink" version="1.1" xmlns="http://www.w3.org/2000/svg" viewBox="0 0 1200 400" width="12cm" height="5.25cm"><rect y="1" width="1198" height="398" fill="none" stroke="rgb(0,0,255)" stroke-width="1" x="1"></rect><path stroke-width="5" fill="rgb(255,0,0)" d="M 300,200,l -150,0,a 150 150 0 1 0 150,-150,Z" stroke="rgb(0,0,255)"></path><path fill="rgb(255,255,0)" stroke="rgb(0,0,255)" stroke-width="5" d="M 275,175,l 0,-150,a 150 150 0 0 0 -150,150,Z"></path><path stroke-width="5" fill="none" d="M 600,350,l 50,-25,a 25 25 -30 0 1 50,-25,l 50,-25,a 25 50 -30 0 1 50,-25,l 50,-25,a 25 75 -30 0 1 50,-25,l 50,-25,a 25 100 -30 0 1 50,-25,l 50,-25" stroke="rgb(255,0,0)"></path></svg>