<?xml version="1.0" encoding="utf-8" standalone="yes"?><svg xmlns:xlink="http://www.w3.org/1999/xlink" viewBox="0 0 1200 400" version="1.1" width="12cm" height="5.25cm" xmlns="http://www.w3.org/2000/svg"><rect height="398" stroke-width="1" stroke="rgb(0,0,255)" x="1" y="1" width="1198" fill="none"></rect><path d="M 300,200,l -150,0,a 150 150 0 1 0 150,-150,Z" stroke-width="5" fill="rgb(255,0,0)" stroke="rgb(0,0,255)"></path><path stroke="rgb(0,0,255)" d="M 275,175,l 0,-150,a 150 150 0 0 0 -150,150,Z" fill="rgb(255,255,0)" stroke-width="5"></path><path fill="none" stroke-width="5" d="M 600,350,l 50,-25,a 25 25 -30 0 1 50,-25,l 50,-25,a 25 50 -30 0 1 50,-25,l 50,-25,a 25 75 -30 0 1 50,-25,l 50,-25,a 25 100 -30 0 1 50,-25,l 50,-25" stroke="rgb(255,0,0)"></path></svg>